<?xml version="1.0" standalone="no"?>
<!DOCTYPE svg PUBLIC "-//W3C//DTD SVG 1.1//EN" "http://www.w3.org/Graphics/SVG/1.1/DTD/svg11.dtd" >
<!--
2013-9-30: Created.
-->
<svg>
<metadata>
Created by iconfont
</metadata>
<defs>

<font id="iconfont" horiz-adv-x="1024" >
  <font-face
    font-family="iconfont"
    font-weight="500"
    font-stretch="normal"
    units-per-em="1024"
    ascent="896"
    descent="-128"
  />
    <missing-glyph />
    
    <glyph glyph-name="x" unicode="x" horiz-adv-x="1001"
d="M281 543q-27 -1 -53 -1h-83q-18 0 -36.5 -6t-32.5 -18.5t-23 -32t-9 -45.5v-76h912v41q0 16 -0.5 30t-0.5 18q0 13 -5 29t-17 29.5t-31.5 22.5t-49.5 9h-133v-97h-438v97zM955 310v-52q0 -23 0.5 -52t0.5 -58t-10.5 -47.5t-26 -30t-33 -16t-31.5 -4.5q-14 -1 -29.5 -0.5
t-29.5 0.5h-32l-45 128h-439l-44 -128h-29h-34q-20 0 -45 1q-25 0 -41 9.5t-25.5 23t-13.5 29.5t-4 30v167h911zM163 247q-12 0 -21 -8.5t-9 -21.5t9 -21.5t21 -8.5q13 0 22 8.5t9 21.5t-9 21.5t-22 8.5zM316 123q-8 -26 -14 -48q-5 -19 -10.5 -37t-7.5 -25t-3 -15t1 -14.5
t9.5 -10.5t21.5 -4h37h67h81h80h64h36q23 0 34 12t2 38q-5 13 -9.5 30.5t-9.5 34.5q-5 19 -11 39h-368zM336 498v228q0 11 2.5 23t10 21.5t20.5 15.5t34 6h188q31 0 51.5 -14.5t20.5 -52.5v-227h-327z" />
    

    
    <glyph glyph-name="xiangmu" unicode="&#58984;" d="M839.52808 577.240119c-28.405957 50.329269-97.460706 69.589938-183.647647 59.648518-35.155684 79.888492-86.551238 130.574894-143.890154 130.574894-57.341986 0-108.739587-50.685379-143.711076-130.574894-86.281085 9.94142-155.426909-9.31925-183.831842-59.648518-28.674063-50.509371-10.122545-121.694643 41.895179-193.33017-52.017724-71.453379-70.569242-142.645814-41.895179-193.151092 28.404933-50.329269 97.637738-69.594031 183.742814-59.654658 35.150568-79.887468 86.457094-130.566708 143.79908-130.566708 57.338916 0 108.73447 50.678216 143.79601 130.566708 86.192058-9.933233 155.336858 9.325389 183.742814 59.654658 28.674063 50.504254 10.211573 121.697713-41.806151 193.238073C849.739653 455.545476 868.203166 526.735865 839.52808 577.240119L839.52808 577.240119 839.52808 577.240119zM803.229362 555.761945c19.877723-35.242665 6.387477-85.74692-31.336706-139.183969-21.572318 24.856108-47.045479 49.260937-75.806523 72.609715-5.502317 39.055504-13.843286 75.800383-24.944112 108.732423C734.524584 604.136699 783.521508 590.735481 803.229362 555.761945L803.229362 555.761945 803.229362 555.761945zM702.037682 428.912909c16.32992-14.821567 31.155581-29.912263 44.292785-44.915979-13.05534-14.908548-27.786857-29.910217-44.028772-44.645826 0.886183 14.646582 1.420349 29.472242 1.420349 44.645826C703.721021 399.268752 702.835861 414.090319 702.037682 428.912909L702.037682 428.912909 702.037682 428.912909zM647.001205 525.492548c-12.96222 8.874111-26.453489 17.576307-40.476877 25.828248-13.313214 7.90197-26.720571 15.090697-40.121789 21.925359 21.922289 7.546883 43.407626 14.022365 63.73151 18.197454C636.88173 571.29164 642.384048 548.835186 647.001205 525.492548L647.001205 525.492548zM511.990279 724.858178c39.942711 0 76.066443-36.128849 102.876042-94.533027-32.840966-6.838755-67.549465-17.754363-102.787014-32.134885-35.329646 14.46955-69.947072 25.297153-102.880135 32.134885C436.00877 688.72933 472.132502 724.858178 511.990279 724.858178L511.990279 724.858178zM393.932466 591.444633c20.591991-4.263094 42.253336-10.29753 64.533782-18.017352-13.760398-6.925736-27.343765-14.028505-41.008996-22.10546-14.20656-8.344039-27.783787-17.219173-41.013089-26.275433C381.06439 548.835186 387.100874 571.027627 393.932466 591.444633L393.932466 591.444633zM220.841246 212.238055c-19.971867 35.242665-6.480598 85.658915 31.244608 139.187039 21.570271-24.856108 47.043433-49.358151 75.8055-72.610738 5.500271-39.055504 13.934361-75.807546 24.944112-108.735493C289.456996 163.863301 240.5491 177.266565 220.841246 212.238055L220.841246 212.238055zM321.944921 339.088114c-16.335037 14.821567-31.067576 29.910217-44.205804 44.908816 13.049201 15.002692 27.694759 29.918403 43.847647 44.650943-0.708128-14.645558-1.330298-29.55513-1.330298-44.650943C320.256466 368.734318 321.146743 353.910705 321.944921 339.088114L321.944921 339.088114zM327.803349 489.099686c-28.761044-23.348778-54.057173-47.934732-75.716472-72.698742-37.812187 53.431933-51.216475 104.030331-31.244608 139.361001 19.707854 34.974559 68.703755 48.374754 132.258233 42.070164C342.002746 564.811042 333.305667 528.243195 327.803349 489.099686L327.803349 489.099686zM376.889301 242.507452c13.049201-8.872065 26.452465-17.572214 40.48097-25.919323 13.314237-7.899924 26.803459-15.089673 40.117696-21.923312-21.836331-7.453762-43.402509-13.935384-63.642482-18.199501C387.100874 196.707336 381.592416 219.163791 376.889301 242.507452L376.889301 242.507452zM511.990279 43.146938c-39.857776 0-76.06849 36.034704-102.878089 94.445022 32.844036 6.831592 67.547419 17.750269 102.790084 32.129768 35.325553-14.46955 70.032006-25.299199 102.875019-32.129768C588.056722 79.181643 551.932989 43.146938 511.990279 43.146938L511.990279 43.146938zM630.043998 176.554344c-20.49887 4.26514-42.163285 10.211573-64.527642 17.935488 13.665231 6.921643 27.424606 14.022365 41.006949 22.098297 14.20042 8.43409 27.870768 17.22122 41.097 26.278503C642.91719 219.163791 636.964618 196.976466 630.043998 176.554344L630.043998 176.554344 630.043998 176.554344zM656.588561 301.450912c-22.01541-16.693194-45.62513-32.668027-71.01438-47.670719-24.855084-14.644535-49.617048-26.716478-74.028017-37.635155-24.145933 10.827603-48.644907 23.255657-73.055876 37.635155-25.297153 14.915711-48.821939 30.892591-70.656223 47.313585-2.927679 26.720571-4.968152 54.145178-4.968152 82.903152 0 28.498054 1.684362 56.011688 4.615111 82.556251 21.924335 16.600073 45.626153 32.663934 71.010287 47.665603 24.768103 14.646582 49.530067 26.804483 73.942059 37.724183 24.145933-10.9197 48.643883-23.346731 73.141834-37.724183 25.209148-14.913665 48.734958-30.891568 70.569242-47.40159 2.927679-26.627451 5.058203-54.05615 5.058203-82.820264C661.201625 355.511155 659.428236 327.898261 656.588561 301.450912L656.588561 301.450912zM803.229362 212.238055c-19.800975-35.062564-68.796876-48.374754-132.262326-42.159192 11.096732 33.014928 19.792788 69.589938 25.299199 108.824521 28.757974 23.345708 53.966099 47.933709 75.626421 72.695672C809.61684 298.072979 823.199183 247.481743 803.229362 212.238055L803.229362 212.238055zM511.990279 447.909565c-35.33067 0-63.910589-28.581965-63.910589-63.912635 0-35.325553 28.579919-63.904449 63.910589-63.904449 35.238572 0 63.906495 28.578896 63.906495 63.904449C575.896774 419.3276 547.228851 447.909565 511.990279 447.909565L511.990279 447.909565zM511.990279 362.695788c-11.806907 0-21.306258 9.495258-21.306258 21.301142 0 11.811 9.499351 21.308305 21.306258 21.308305 11.80179 0 21.303188-9.497305 21.303188-21.308305C533.293467 372.191046 523.792069 362.695788 511.990279 362.695788L511.990279 362.695788zM511.990279 362.695788"  horiz-adv-x="1024" />

    
    <glyph glyph-name="ruku" unicode="&#58880;" d="M509.952 539.648c0 15.872-12.8 29.184-29.184 29.184l-204.8 0c-15.872 0-29.184-12.8-29.184-29.184 0-15.872 12.8-29.184 29.184-29.184l204.8 0C497.152 510.464 509.952 523.264 509.952 539.648zM353.28 315.904 275.968 315.904c-15.872 0-29.184-12.8-29.184-29.184 0-15.872 12.8-29.184 29.184-29.184L353.28 257.536c15.872 0 29.184 12.8 29.184 29.184C382.464 302.592 369.152 315.904 353.28 315.904zM333.824 189.44 270.848 189.44c-13.312 0-24.064-12.8-24.064-29.184 0-15.872 10.752-29.184 24.064-29.184l63.488 0c13.312 0 24.064 12.8 24.064 29.184C357.888 176.128 347.136 189.44 333.824 189.44zM406.016 413.184c0 15.872-12.8 29.184-29.184 29.184L275.968 442.368c-15.872 0-29.184-12.8-29.184-29.184 0-15.872 12.8-29.184 29.184-29.184l100.864 0C392.704 384 406.016 396.8 406.016 413.184zM936.448 260.096l-354.816 0 92.672 76.8c9.216 9.216 9.216 24.064 0 32.768-9.216 9.216-24.064 9.216-33.28 0l-138.752-114.688c-4.608-4.608-7.168-11.264-6.656-17.92-0.512-6.144 1.536-12.8 6.656-17.92l138.752-114.688c9.216-9.216 24.064-9.216 33.28 0 9.216 9.216 9.216 24.064 0 32.768l-91.648 75.776 354.304 0c12.8 0 23.04 10.24 23.04 23.04C960 249.856 949.76 260.096 936.448 260.096zM1044.992 462.336c0.512 6.144-1.536 12.8-6.656 17.92l-138.752 114.688c-9.216 9.216-24.064 9.216-33.28 0-9.216-9.216-9.216-24.064 0-32.768l91.648-75.776L604.16 486.4c-12.8 0-23.04-10.24-23.04-23.04 0-12.8 10.24-23.04 23.04-23.04l354.816 0-92.672-76.8c-9.216-9.216-9.216-24.064 0-32.768 9.216-9.216 24.064-9.216 33.28 0l138.752 114.688C1043.456 449.536 1045.504 456.192 1044.992 462.336zM816.128 96.768 757.76 96.768c-4.096-24.064-25.088-42.496-50.688-42.496L588.8 54.272 336.384 54.272 218.112 54.272c-28.672 0-51.712 23.04-51.712 51.712l0 2.56L166.4 578.048l0 16.896c0 1.024 0 1.536 0 2.56 1.536 27.136 24.064 48.64 51.2 48.64l488.96 0c25.6 0 47.104-18.944 50.688-43.52l77.824 0 0 17.92c0 9.728-1.536 19.456-4.096 28.16-0.512 2.56-1.536 4.608-2.56 7.168-14.336 39.424-52.224 67.584-96.768 67.584l0 0L192.512 723.456l0 0c-48.128 0-88.064-32.768-99.84-77.312-1.024-3.072-1.536-6.656-2.048-10.24-0.512-1.536-0.512-3.584-0.512-5.12-0.512-3.584-0.512-7.168-0.512-10.752l0-111.104 0-400.896 0-28.672 0-1.024c0-3.584 0-7.168 0.512-10.752 0-1.536 0.512-3.584 0.512-5.12 0.512-3.584 1.024-6.656 2.048-10.24 11.264-44.544 51.712-77.312 99.84-77.312l0 0 154.624 0 77.312 0 77.312 0L578.56-25.088l154.624 0 0 0c44.544 0 82.432 28.16 96.768 67.584 1.024 2.56 1.536 4.608 2.56 7.168 2.56 9.216 4.096 18.432 4.096 28.16l0 17.92L816.128 96.768C816.128 96.768 816.128 96.768 816.128 96.768z"  horiz-adv-x="1087" />

    
    <glyph glyph-name="webicon208" unicode="&#59014;" d="M512 306.624c117.792 0 213.6 95.808 213.6 213.6S629.792 733.824 512 733.824s-213.6-95.84-213.6-213.6c0-72.16 36.064-135.936 90.976-174.624C271.68 296.512 192 179.744 192 50.176c0-8.832 7.168-16 16-16s16 7.168 16 16c0 125.28 82.784 237.376 201.856 274.72C452.224 313.216 481.344 306.624 512 306.624zM330.4 520.192c0 100.128 81.472 181.6 181.6 181.6s181.6-81.472 181.6-181.6c0-100.128-81.472-181.6-181.6-181.6S330.4 420.064 330.4 520.192zM767.872 242.368c-13.248 17.632-28.416 33.984-45.024 48.544-6.624 5.824-16.736 5.152-22.56-1.472-5.824-6.656-5.152-16.768 1.504-22.592 14.976-13.12 28.608-27.808 40.544-43.712C780.064 172.96 800 113.152 800 50.176c0-8.832 7.168-16 16-16s16 7.168 16 16C832 120.16 809.824 186.624 767.872 242.368zM647.424 264.16l-169.696-169.696c-2.88-2.88-6.88-4.672-11.328-4.672-4.416 0-8.416 1.792-11.328 4.672l-79.2 79.2c-5.728 5.728-15.424 5.312-21.696-0.928s-6.656-15.968-0.928-21.696l90.496-90.496c5.792-5.792 13.792-9.376 22.624-9.376 8.832 0 16.832 3.584 22.624 9.376l181.024 181.024c6.24 6.24 6.24 16.384 0 22.624C663.808 270.432 653.696 270.432 647.424 264.16z"  horiz-adv-x="1024" />

    
    <glyph glyph-name="webicon303" unicode="&#59032;" d="M364 576c-8.832 0-16-7.168-16-16s7.168-16 16-16L832 544l0-103.872c0-11.648 1.792-22.88-5.92-31.648-7.68-8.736-15.296-14.432-26.848-15.936L424.992 343.04c-21.44-2.816-39.68-13.888-52.704-31.168-10.816-14.368-11.84-37.6-10.912-55.584-9.024 0.96-17.312 4.416-24.544 10.176-8.608 6.848-14.336 16.096-16.544 25.44L271.744 630.816C270.08 642.24 264.384 652.704 255.68 660.288 246.944 667.84 235.808 672 224.256 672L172 672c-8.832 0-16-7.168-16-16S163.168 640 172 640l52.256 0c2.72 0 6.752-0.672 10.464-3.904 3.744-3.264 4.992-7.136 5.376-9.824L288.96 286.016c4.032-17.536 14.016-33.376 28.128-44.64C331.2 230.176 348.864 224 366.912 224l8.608 0c1.28-0.32 2.624-0.512 3.968-0.512 0.768 0 1.6 0.064 2.368 0.16 0.576 0.064 1.088 0.192 1.632 0.32l428.544 0c8.832 0 16 7.168 16 16s-7.168 16-16 16L393.856 255.968c-1.024 16.672 0.704 31.264 4.736 36.608 7.808 10.368 19.232 17.024 32.096 18.688l375.744 49.504c19.264 2.528 30.912 11.968 43.712 26.56C862.944 401.984 864 420.704 864 440.128L864 576 364 576zM362.016 112m-48 0a1.5 1.5 0 1 0 96 0 1.5 1.5 0 1 0-96 0ZM714.016 112m-48 0a1.5 1.5 0 1 0 96 0 1.5 1.5 0 1 0-96 0Z"  horiz-adv-x="1024" />

    
    <glyph glyph-name="webicon305" unicode="&#59034;" d="M696.608 269.12c-7.168 7.616-14.688 14.88-22.56 21.792-6.624 5.792-16.736 5.184-22.56-1.472-5.824-6.656-5.152-16.736 1.504-22.592 7.072-6.208 13.856-12.736 20.288-19.616 7.2-7.648 13.952-15.68 20.256-24.096 37.76-50.144 57.696-109.984 57.696-172.928 0-8.832 7.168-16 16-16s16 7.168 16 16c0 69.984-22.176 136.416-64.128 192.16C712.064 251.68 704.576 260.64 696.608 269.12zM822.752 257.536c-6.368 8.416-13.12 16.48-20.352 24.16-6.464 6.88-13.28 13.472-20.384 19.712-6.688 5.824-16.768 5.184-22.592-1.472-5.824-6.656-5.152-16.736 1.472-22.592 6.336-5.536 12.416-11.392 18.176-17.536 6.4-6.848 12.48-14.08 18.112-21.536 33.728-44.864 51.552-98.368 51.552-154.688 0-8.832 7.168-16 16-16s16 7.168 16 16C880.8 146.912 860.736 207.04 822.752 257.536zM785.056 506.592c0 106.88-86.976 193.824-193.856 193.824-4.32 0-8.512-0.384-12.768-0.64-33.28 21.44-72.8 34.048-115.232 34.048-117.792 0-213.6-95.84-213.6-213.6 0-72.16 36.032-135.936 90.976-174.624-117.696-49.056-197.376-165.856-197.376-295.392 0-8.832 7.168-16 16-16s16 7.168 16 16c0 125.28 82.752 237.376 201.856 274.72 26.368-11.68 55.488-18.304 86.144-18.304 26.4 0 51.584 5.024 74.912 13.824 16.896-4.864 34.624-7.68 53.088-7.68C698.08 312.736 785.056 399.712 785.056 506.592zM463.2 338.624c-100.128 0-181.6 81.472-181.6 181.6 0 100.128 81.472 181.6 181.6 181.6s181.6-81.472 181.6-181.6C644.8 420.064 563.328 338.624 463.2 338.624zM591.2 344.736c-1.952 0-3.776 0.512-5.728 0.576 55.136 38.656 91.328 102.56 91.328 174.88 0 56.192-21.984 107.232-57.568 145.408 0 0 0 0 0 0 75.872-13.376 133.792-79.36 133.792-159.008C753.056 417.344 680.448 344.736 591.2 344.736z"  horiz-adv-x="1024" />

    
    <glyph glyph-name="webicon319" unicode="&#59056;" d="M341.056 272.992c-17.824-9.376-40.16-14.048-67.04-14.048-34.688 0-62.4 11.008-83.136 33.056-20.704 22.016-31.104 51.136-31.104 87.36 0 39.008 11.648 70.304 35.008 94.048s52.96 35.616 88.896 35.616c23.136 0 42.24-3.264 57.344-9.824l0-32.672c-17.28 9.632-36.32 14.368-57.024 14.368-26.976 0-48.96-8.928-65.952-26.944-16.96-17.952-25.472-42.176-25.472-72.736 0-28.928 7.904-51.936 23.744-68.928 15.84-17.056 36.576-25.568 62.176-25.568 23.968 0 44.768 5.376 62.496 16.256L340.992 272.992zM566.208 263.008l-36.864 0-40.16 67.2c-8.032 13.44-15.36 22.56-22.016 27.424-6.656 4.8-14.624 7.264-23.904 7.264l-22.496 0 0-101.888-31.264 0 0 242.016 73.76 0c23.52 0 41.984-5.696 55.328-16.992 13.344-11.36 20-27.264 20-47.68 0-33.504-17.92-55.328-53.76-65.312l0-0.736c6.656-2.816 12.448-6.816 17.248-12.064 4.864-5.184 11.136-14.112 18.848-26.688L566.208 263.008zM420.736 477.696l0-85.504 36.864 0c14.272 0 25.888 4.192 34.752 12.512 8.928 8.384 13.376 19.328 13.376 32.8 0 12.64-4.064 22.432-12.192 29.568-8.128 7.072-19.936 10.624-35.456 10.624L420.736 477.696zM817.312 263.008l0 160.32c0 13.184 0.768 29.12 2.336 47.616L818.88 470.944c-2.72-11.616-5.088-19.744-7.2-24.384l-79.84-183.552-17.344 0-79.68 182.176c-1.888 4.128-4.288 12.736-7.2 25.76l-0.928 0c1.024-11.264 1.568-27.552 1.568-49.056l0-158.88L598.4 263.008l0 242.016 42.336 0 71.392-165.952c5.408-12.672 8.992-22.56 10.784-29.696l1.088 0c5.408 14.944 9.216 24.992 11.392 30.304l72.672 165.312 40.32 0 0-242.016L817.312 262.976zM272.576 544C324.224 621.152 412.16 672 512 672s187.776-50.848 239.424-128l37.408 0C733.472 639.552 630.368 704 512 704s-221.472-64.448-276.832-160L272.576 544zM751.424 224c-51.68-77.152-139.584-128-239.424-128s-187.776 50.848-239.424 128L235.168 224c55.36-95.552 158.464-160 276.832-160s221.472 64.448 276.832 160L751.424 224z"  horiz-adv-x="1024" />

    
    <glyph glyph-name="baojiakaidan" unicode="&#58915;" d="M210.532316 365.326548c-10.769805 0-22.929262 11.117218-22.929262 21.887023l0 6.600848c0 8.337913 3.474131 21.887023 22.929262 21.887023l313.019169 0c10.769805 0 21.887023-10.943511 21.887023-21.887023l0-6.600848c0-10.769805-11.117218-21.887023-21.887023-21.887023L210.532316 365.326548zM210.532316 651.942324c-19.281425 0-22.234436 14.417642-22.234436 22.755556 0 17.891773 11.638338 29.356404 22.234436 29.356404L422.10687 704.054283c10.769805 0 20.844784-12.159457 20.844784-23.102969l0-6.600848c0-10.769805-10.074979-22.408142-20.844784-22.408142L210.532316 651.942324zM210.532316 507.765903c-10.769805 0-22.929262 12.159457-22.929262 22.929262l0 6.600848c0 10.769805 11.985751 22.408142 22.929262 22.408142l449.205089 0c10.769805 0 22.929262-11.638338 22.929262-22.408142l0-5.558609c-6.948261-12.680577-12.854283-23.971501-29.703817-23.971501L210.532316 507.765903zM839.871077 398.157082c-13.375403 0-26.924512 5.906022-26.924512 26.750806l0 350.887193c0 33.351654-26.05598 60.276166-59.58134 60.276166L150.082443 836.071247c-33.351654 0-59.755047-26.924512-59.755047-60.276166l0-755.275997c0-33.351654 26.229686-61.492112 59.755047-61.492112l347.586768 0c13.375403 0 26.750806-12.680577 26.750806-26.05598 0-13.375403-13.375403-26.05598-26.750806-26.05598L150.082443-93.084987c-66.877014 0-113.604071 53.501612-113.604071 113.604071L36.478372 775.795081c0 60.10246 53.327905 114.125191 113.604071 114.125191l603.456489 0c66.877014 0 113.430365-54.022731 113.430365-114.125191l0-350.887193C866.795589 407.884648 859.847328 398.157082 839.871077 398.157082L839.871077 398.157082 839.871077 398.157082zM934.714843 253.980662c-41.689567 41.689567-97.62307 64.61883-157.551824 64.61883-59.928753 0-115.862256-22.929262-157.551824-64.61883-41.689567-41.689567-64.61883-97.62307-64.61883-157.551824 0-59.928753 22.929262-115.862256 64.61883-157.551824 41.689567-41.689567 97.62307-64.61883 157.551824-64.61883 59.928753 0 115.862256 22.929262 157.551824 64.61883 41.689567 41.689567 64.61883 97.62307 64.61883 157.551824C999.333673 156.357591 976.230704 212.291094 934.714843 253.980662zM777.16302-84.399661c-97.970483 0-180.828499 82.858015-180.828499 180.828499 0 97.970483 82.858015 180.828499 180.828499 180.828499 48.116709 0 93.280407-18.412892 127.326887-51.59084 34.5676-33.872774 53.675318-79.731298 53.675318-129.237659C957.991518-1.715352 875.133503-84.399661 777.16302-84.399661zM851.162002 99.555556c8.685327 0 15.807294 6.600848 15.807294 15.633588 0 9.03274-7.121968 15.633588-15.807294 15.633588l-44.468872 0 51.59084 51.938253c4.863783 4.863783 3.647837 14.070229-2.953011 20.671077-3.821544 3.821544-8.337913 6.079729-12.854283 6.079729-3.126718 0-5.732316-1.042239-7.643087-2.953011l-59.233927-59.233927-59.233927 59.233927c-1.910772 1.910772-4.51637 2.953011-7.643087 2.953011-4.342663 0-9.03274-2.084478-12.854283-5.906022-6.600848-6.600848-7.816794-15.981001-2.953011-20.844784l51.59084-51.938253-41.515861 0c-8.685327 0-15.807294-6.600848-15.807294-15.633588 0-9.03274 7.121968-15.633588 15.807294-15.633588L759.09754 99.555556l0-31.267176-55.933503 0c-8.685327 0-15.807294-6.600848-15.807294-15.633588 0-9.03274 7.121968-15.633588 15.807294-15.633588L759.09754 37.021204l0-36.825785c0-9.380153 8.859033-17.02324 18.239186-17.02324 9.380153 0 18.239186 7.643087 18.239186 17.02324l0 36.825785 55.58609 0c8.685327 0 15.807294 6.600848 15.807294 15.633588 0 9.03274-7.121968 15.633588-15.807294 15.633588l-55.58609 0 0 31.267176L851.162002 99.555556zM637.676675 390.513995m-30.05123 0a17.3 17.3 0 1 0 60.10246 0 17.3 17.3 0 1 0-60.10246 0Z"  horiz-adv-x="1035" />

    
    <glyph glyph-name="web-icon-" unicode="&#59061;" d="M608 352h-288c-8.837 0-16-7.163-16-16s7.163-16 16-16h288c8.837 0 16 7.163 16 16s-7.163 16-16 16zM547.2 288h-230.4c-7.072 0-12.8-8.928-12.8-16s5.728-16 12.8-16h230.4c7.072 0 12.8 8.928 12.8 16s-5.728 16-12.8 16zM768 224c0-0.029 0-0.062 0-0.096 0-17.62-14.284-31.904-31.904-31.904-0.034 0-0.068 0-0.101 0l-447.995-0c-0.029-0-0.062-0-0.096-0-17.62 0-31.904 14.284-31.904 31.904 0 0.034 0 0.068 0 0.101l-0 95.995c0 8.837-7.163 16-16 16s-16-7.163-16-16v-96c0-16.384 6.24-32.768 18.752-45.248 12.48-12.512 28.864-18.752 45.248-18.752h448c0.035-0 0.077-0 0.119-0 17.635 0 33.595 7.168 45.127 18.75 11.586 11.536 18.754 27.497 18.754 45.131 0 0.042-0 0.084-0 0.125l0 95.994c0 8.837-7.163 16-16 16s-16-7.163-16-16v-96zM506.304 384h-27.616l-19.744 52.992h-80.64l-18.624-52.992h-27.616l73.76 193.632h26.752l73.728-193.632zM451.2 458.88l-29.248 80.512c-2.246 7.097-3.651 15.281-3.885 23.757l0.237-10.253c-1.074-7.775-3.192-14.811-6.231-21.331l-25.897-72.685h65.024zM534.304 384v193.632h55.264c29.344 0 53.728-8.544 73.184-25.632s29.184-40 29.184-68.736c0-30.016-9.728-54.048-29.184-72.128s-44.544-27.136-75.2-27.136h-53.248zM559.328 555.36v-149.248h28.128c24.608 0 43.776 6.688 57.568 20.128s20.672 32.192 20.672 56.384-7.104 42.336-21.248 54.496-32.768 18.24-55.872 18.24h-29.248z"  horiz-adv-x="1024" />

    
    <glyph glyph-name="web-icon-1" unicode="&#59064;" d="M528.576 389.376v-46.24h82.08a16.544 16.544 0 0 0 0-33.088h-82.08v-51.872a16.544 16.544 0 0 0-33.152 0v51.872h-82.08a16.512 16.512 0 1 0 0 33.088h82.08v46.24h-82.08a16.512 16.512 0 1 0 0 33.088h76.384l-87.2 74.944a16.512 16.512 0 0 0 21.632 24.928l87.872-75.52 87.84 75.52a16.512 16.512 0 0 0 21.632-24.928l-87.2-74.944h76.384a16.544 16.544 0 0 0 0-33.088h-82.112zM512 704C335.264 704 192 560.736 192 384s143.264-320 320-320 320 143.264 320 320S688.736 704 512 704z m0-608a288 288 0 0 0-288 288c0 159.072 128.928 288 288 288s288-128.928 288-288a288 288 0 0 0-288-288z"  horiz-adv-x="1024" />

    
    <glyph glyph-name="hetong" unicode="&#59015;" d="M703.5 512.9c-138.7 0-255.4-113.2-255.4-255.6 0-142.4 113.1-255.6 255.4-255.6C845.9 1.8 959 115 959 257.3c3.6 142.4-113.1 255.6-255.5 255.6z m195.5-254v-1.5c0-52.8-20.2-102.1-56.8-138.8-36.6-36.6-85.9-56.8-138.7-56.8-52.8 0-102 20.2-138.7 56.8-36.6 36.6-56.8 85.9-56.8 138.8 0 52.3 20.6 101.5 57.9 138.5 18.1 17.9 39.1 32 62.4 41.8 23.9 10.1 49.2 15.2 75.1 15.2 27.5 0 54.1-5.4 79.1-16 24.1-10.3 45.5-24.9 63.6-43.4 35.4-36.3 54.2-84.1 52.9-134.6zM512.4 1.2H128v767h576v-196c0-17.7 14.3-32 32-32s32 14.3 32 32V770.4c0 34.1-27.7 61.8-61.8 61.8H125.8C91.7 832.2 64 804.4 64 770.4V-1c0-34.1 27.7-61.8 61.8-61.8h386.6c17.7 0 32 14.3 32 32s-14.3 32-32 32zM576.8 640c0 15.9-12.9 28.8-28.8 28.8H221c-15.9 0-28.8-12.9-28.8-28.8s12.9-28.8 28.8-28.8h327c15.9 0 28.8 12.9 28.8 28.8zM512.1 512.2c0 15.9-12.9 28.8-28.8 28.8H222c-15.9 0-28.8-12.9-28.8-28.8s12.9-28.8 28.8-28.8h261.3c15.9 0 28.8 12.9 28.8 28.8zM222 412.1c-15.9 0-28.8-12.9-28.8-28.8s12.9-28.8 28.8-28.8h165.9c15.9 0 28.8 12.9 28.8 28.8s-12.9 28.8-28.8 28.8H222zM827.2 309l-69.9 10.2-31.3 63.3c-4.2 8.5-12.9 13.9-22.4 13.9s-18.2-5.4-22.4-13.9l-31.3-63.4L580 309c-9.4-1.4-17.2-8-20.2-17-2.9-9.1-0.5-19 6.3-25.6l50.6-49.3-11.9-69.6c-1.6-9.4 2.2-18.9 9.9-24.5 7.7-5.6 17.9-6.3 26.3-1.9l62.5 32.9 62.5-32.9c3.7-1.9 7.7-2.9 11.6-2.9 5.2 0 10.3 1.6 14.7 4.8 7.7 5.6 11.6 15.1 9.9 24.5l-11.9 69.6 50.6 49.3c6.8 6.6 9.3 16.6 6.3 25.6-2.8 9.1-10.6 15.7-20 17z m-81.1-65.3c-5.9-5.7-8.6-14-7.2-22.1l5.6-32.7-29.3 15.4c-3.6 1.9-7.6 2.9-11.6 2.9s-8-1-11.6-2.9l-29.3-15.4 5.6 32.7c1.4 8.1-1.3 16.4-7.2 22.1l-23.7 23.1 32.8 4.8c8.1 1.2 15.2 6.3 18.8 13.7l14.7 29.7 14.7-29.7c3.6-7.4 10.7-12.5 18.8-13.7l32.8-4.8-23.9-23.1z"  horiz-adv-x="1024" />

    
    <glyph glyph-name="web-icon-2" unicode="&#59101;" d="M515.136 326.112c-1.568 1.568-6.272 1.568-6.272 0l3.136 4.704 3.136-4.704z m95.424 114.208l-75.104-129.856c-9.376-17.216-29.728-18.784-43.808-4.704l-92.288 98.56-92.288-170.528c-6.272-12.512-21.888-21.888-37.536-21.888H206.944A46.112 46.112 0 0 0 160 258.848V649.952c0 26.592 20.352 46.944 46.944 46.944h610.144c26.56 0 46.912-20.352 46.912-46.944v-391.104c0-26.592-20.352-46.944-46.944-46.944h-287.872V102.4h140.8c9.376 0 15.648-6.272 15.648-15.648s-6.272-15.648-15.648-15.648H357.12c-9.376 0-15.648 6.272-15.648 15.648s6.272 15.648 15.648 15.648h140.8v109.504a31.36 31.36 0 0 0 31.296 31.296h289.408c9.376 0 15.648 6.272 15.648 15.648V649.952c0 7.808-7.808 15.648-15.648 15.648H208.512c-9.376 0-15.648-6.272-15.648-15.648v-391.104c0-7.808 7.808-15.648 15.648-15.648h62.592c3.136 0 7.808 3.136 9.376 4.704l95.424 176.768c9.376 17.216 29.728 20.352 43.808 6.272L512 332.384l75.104 129.856a94.144 94.144 0 0 0 68.832 157.984c51.616 0 93.856-42.24 93.856-93.856s-42.24-93.856-93.856-93.856c-17.216-3.136-32.864 1.536-45.376 7.808z m43.808 20.352c34.432 0 62.592 28.16 62.592 62.592s-28.16 62.592-62.592 62.592-62.592-28.16-62.592-62.592 28.16-62.592 62.592-62.592z"  horiz-adv-x="1024" />

    
    <glyph glyph-name="waixieziyuan" unicode="&#58908;" d="M815.9 580.6v-179.1H636.7V580.6h179.2m2.9 40H633.7c-20.4 0-37-16.6-37-37v-185.1c0-20.4 16.6-37 37-37h185.1c20.4 0 37 16.6 37 37V583.6c0.1 20.4-16.5 37-37 37z m-2.9-359.2v-179.1H636.7V261.4h179.2m2.9 40H633.7c-20.4 0-37-16.6-37-37v-185.1c0-20.4 16.6-37 37-37h185.1c20.4 0 37 16.6 37 37V264.4c0.1 20.4-16.5 37-37 37zM496.7 691.6v-290.2H206.5V691.6h290.2m3 40H203.5c-20.4 0-37-16.6-37-37v-296.1c0-20.4 16.6-37 37-37h296.1c20.4 0 37 16.6 37 37V694.6c0.1 20.5-16.5 37-36.9 37z m-3-470.2v-179.1H317.6V261.4h179.1m3 40H314.6c-20.4 0-37-16.6-37-37v-185.1c0-20.4 16.6-37 37-37h185.1c20.4 0 37 16.6 37 37V264.4c0 20.4-16.6 37-37 37z"  horiz-adv-x="1024" />

    
    <glyph glyph-name="web-icon-3" unicode="&#59121;" d="M857.344 413.536l-90.816 85.728V624.736c0 26.656-20.832 48.288-46.4 48.288-25.568 0-46.4-21.664-46.4-48.288v-39.744l-150.112 142.88a17.536 17.536 0 0 1-23.968 0L166.656 413.536c-5.312-4.896-6.912-14.272-4.352-20.96 2.656-6.624 9.088-12.736 16.256-12.736h99.456v-203.808l-33.408-35.04a61.728 61.728 0 0 1 0-87.488c11.744-11.744 27.296-18.144 43.872-18.144s32.16 6.4 43.872 18.144l1.856 1.952h393.376a17.664 17.664 0 0 1 17.728 17.568V379.84h100.128c7.232 0 13.536 6.048 16.224 12.736 2.624 6.784 0.928 16.16-4.32 20.96zM309.088 77.632a28.96 28.96 0 0 0-40.352-0.032 28.96 28.96 0 0 0 0 41.088l164.896 164.544-5.664 16.768a100.608 100.608 0 0 0-2.816 54.432c4.16 18.528 12.672 33.792 26.176 47.328a100.8 100.8 0 0 0 71.136 29.472c-13.664-13.952-21.12-31.648-21.12-49.952 0-18.688 6.08-36.736 20.16-50.784 14.08-13.984 33.824-20.832 52.48-20.832 18.304 0 35.2 7.488 48.96 20.896a98.88 98.88 0 0 0-99.84-99.424 102.4 102.4 0 0 0-32.416 5.344l-16.768 5.6-164.832-164.448zM721.792 418.24a17.472 17.472 0 0 1-17.568-17.472v-306.848H371.072l111.712 109.76c13.056-4.096 26.592-6.144 40.288-6.144a133.216 133.216 0 0 1 94.688 39.072 133.952 133.952 0 0 1 26.432 150.368l-2.784 6.048-4.448-4.992c-4.928-5.6-12.352-12.288-22.656-21.664-4.32-3.904-8.64-7.808-12.928-11.776-16.128-15.968-39.136-15.776-55.072 0a38.912 38.912 0 0 0-12.16 27.424c0 9.856 4.352 19.616 12.224 27.424 36.032 36.128 35.488 38.432 35.136 40.128l-0.48 2.144-1.92 0.864a135.296 135.296 0 0 1-56.416 12.352 132.832 132.832 0 0 1-94.592-39.072 133.12 133.12 0 0 1-33.056-134.72l-76-75.84 0.032 185.44c0 9.6-7.84 17.472-17.568 17.472H227.392l284.192 265.152 284.288-265.12h-74.08z"  horiz-adv-x="1024" />

    
    <glyph glyph-name="web-icon-4" unicode="&#59122;" d="M261.248 268.064l314.208 333.408 141.056-132.832-314.304-333.504-140.96 132.928z m255.84 205.088c-2.912-2.048-7.136-4.096-10.144-7.296-41.888-44.192-83.616-88.512-125.376-132.832-15.04-15.968-30.112-31.936-45.12-47.936-4.16-4.416-9.824-9.76-5.696-15.616 4.512-6.336 11.136-11.904 18.048-15.424 2.688-1.376 9.76 2.72 12.992 6.112 32.032 33.504 63.712 67.36 95.488 101.12l75.04 79.648c4.256 4.512 8.704 9.376 5.344 15.904a30.432 30.432 0 0 1-20.576 16.32z m63.52 65.44c-4.128-2.016-7.296-2.784-9.312-4.736-5.888-5.696-11.36-11.84-16.864-17.952a8.48 8.48 0 0 1-2.08-4.384c-1.6-11.712 8.416-14.816 15.296-20.096 5.44-4.192 10.368-1.952 14.592 2.368a358.4 358.4 0 0 1 13.44 14.432c5.6 6.496 5.472 12.672-0.864 18.848-4.416 4.256-9.536 7.744-14.208 11.52zM697.568 393.312l-50.624-53.6c-9.216-9.792-18.208-19.808-27.712-29.312-5.152-5.152-3.776-9.024 0.864-13.024 7.392-6.368 16.032-5.44 24.064 2.752 12.096 12.352 24.064 24.832 35.936 37.376 2.048 2.176 3.456 4.96 5.312 7.68l13.024-12.704-39.456-41.024c-10.528-10.944-11.904-20.512-4.032-27.808 7.616-7.04 16.128-4.896 27.104 5.472 13.728 13.024 28 25.472 42.048 38.176l-1.76 2.976 11.648-11.072-33.92-35.232c-2.848-2.976-5.792-5.856-8.576-8.864-8.032-8.768-8.704-18.112-1.856-24.8 6.848-6.688 16.544-5.856 24.736 2.464 10.976 11.168 21.728 22.496 32.544 33.824 3.2 3.36 6.272 6.848 10.24 11.2l11.712-12.384-38.4-40.256c-2.08-2.176-4.288-4.256-6.208-6.592-5.664-6.944-5.6-15.872 0.032-21.728 5.888-6.112 15.2-6.496 22.304-0.416 4.352 3.712 7.968 8.32 12.192 12.224 11.52 10.56 23.2 20.96 35.104 31.68 9.056-7.04 9.568-22.976-1.632-34.784-20.576-21.728-41.408-43.2-62.144-64.768-10.848-11.264-21.632-22.624-32.608-33.76-13.568-13.76-27.968-14.144-41.824-0.864-37.44 35.872-74.72 71.936-112.096 107.904l-7.808 7.392-28.768-30.304c8.704-8.992 16.8-17.856 25.376-26.176 42.208-40.832 84.544-81.568 126.88-122.304 13.248-12.736 23.936-12.576 36.864 0.8a110558.08 110558.08 0 0 1 158.912 164.736c10.944 11.36 11.168 23.488 0.256 34.048-51.296 49.6-102.752 99.04-154.144 148.544-0.832 0.704-1.824 1.248-3.584 2.528zM453.184 570.272l-60.768-62.816c-4.576-4.736-9.248-9.376-13.6-14.304-8.256-9.312-4.352-24.288 7.488-27.04 3.616-0.832 9.408 0.192 11.776 2.688 34.912 36.448 69.44 73.312 104.032 110.08 0.512 0.544 0.704 1.44 1.28 2.592l-63.84 61.696-74.08 71.456c-12.64 12.192-24.256 12.096-36.416-0.544l-158.24-164.192c-12.64-13.12-12.48-23.968 0.832-36.832 45.76-44.256 91.552-88.448 137.376-132.672 0.96-0.928 2.08-1.632 3.52-2.752l26.304 27.84c-14.496 16.032-27.968 32-42.592 46.848-20.416 20.704-41.76 40.48-62.528 60.832-12.256 12.032-12.48 26.944-0.544 39.36a21393.152 21393.152 0 0 0 95.456 98.944c10.912 11.232 25.792 13.024 36.96 2.688 29.312-27.232 57.856-55.328 87.584-83.872zM639.36 669.888c18.912 19.456 36.448 39.168 55.808 56.864 15.104 13.76 37.696 11.424 53.984-3.648 26.4-24.416 52.512-49.088 78.496-73.952 15.616-14.976 19.328-38.048 6.592-53.76-16.512-20.352-35.136-38.976-53.312-58.848L639.36 669.888z m80.16 28.864l-25.92-27.488 85.376-80.544 26.048 27.456-85.504 80.576zM384.064 116.544c-2.56-1.12-3.744-1.728-4.992-2.208a432059.072 432059.072 0 0 0-159.04-60.736c-8.768-3.328-17.312-3.68-24.608 3.232-6.912 6.592-7.712 14.752-4.928 23.552 0.48 1.568 0.768 3.2 1.28 4.768l45.28 143.52 6.528 20.416 140.48-132.544z m-128.48 86.272l-9.984-31.392c-3.168-9.92-6.208-19.872-9.536-29.728-1.504-4.448-0.672-7.488 2.976-10.752 9.792-8.768 19.072-18.08 28.736-26.944 1.568-1.44 4.64-2.976 6.272-2.368 20.736 7.584 41.312 15.552 63.392 24l-81.856 77.184zM730.784 483.936l36.384 38.592-140.96 132.864-36.32-38.56 140.896-132.896zM332.448 505.632c-30.144 0.48-54.144 24.704-53.568 54.048 0.576 29.472 25.152 53.728 53.888 53.152 30.08-0.608 54.08-24.992 53.44-54.304-0.672-29.92-24.48-53.376-53.76-52.896z m-21.376 53.024a21.28 21.28 0 0 1 21.728-21.088 21.504 21.504 0 0 1 21.408 21.568 21.568 21.568 0 0 1-43.136-0.48z"  horiz-adv-x="1024" />

    
    <glyph glyph-name="xietongzhiwei" unicode="&#58894;" d="M631.808 896H395.776c-35.328 0-64-28.672-64-64v-236.032c0-35.328 28.672-64 64-64h236.032c35.328 0 64 28.672 64 64V832C696.32 867.328 667.136 896 631.808 896zM395.776 595.968V832h236.032v-236.032H395.776z m236.032-359.424H395.776c-35.328 0-64-28.672-64-64v-236.032c0-35.328 28.672-64 64-64h236.032c35.328 0 64 28.672 64 64v236.032c0.512 34.816-28.672 64-64 64z m-236.032-300.544v236.032h236.032v-236.032H395.776z m-168.96 357.888c-17.92 0-32.256-14.336-32.256-32.256v-98.816c-102.4 48.128-153.088 167.936-113.664 276.48C106.496 508.928 163.84 562.688 235.008 583.68c16.896 5.12 26.624 23.04 21.504 39.936S233.984 650.24 216.576 645.12C125.952 617.984 52.736 549.376 20.48 460.8c-49.664-136.704 11.776-287.744 138.752-352.256H35.328c-17.92 0-32.256-14.336-32.256-32.256s14.336-32.256 32.256-32.256h223.232V261.12c0 18.432-14.336 32.768-31.744 32.768z m644.096 288.768h117.76c17.92 0 32.256 14.336 32.256 32.256s-14.336 32.256-32.256 32.256h-223.232V430.08c0-17.92 14.336-32.256 32.256-32.256s32.256 14.336 32.256 32.256V531.456c102.4-48.128 153.088-167.936 113.664-276.48-25.088-69.12-82.944-123.392-154.112-144.384-16.896-5.12-26.624-23.04-21.504-39.936s22.528-26.624 39.936-21.504c90.624 27.136 163.84 95.744 196.096 184.32 48.128 134.656-10.752 282.624-133.12 349.184z"  horiz-adv-x="1024" />

    
    <glyph glyph-name="web-icon-5" unicode="&#59126;" d="M774.752 485.152c6.432-1.76 11.104-7.104 11.104-13.12v-394.336c0-7.456-7.2-13.728-15.712-13.728H253.856c-8.512 0-15.712 6.304-15.712 13.728V472.032c0 6.016 4.672 11.36 11.104 13.12l226.4-90.624a97.568 97.568 0 0 1 72.704 0l226.4 90.624m-1.568 32.448a17.664 17.664 0 0 1-6.688-1.312l-230.016-92.064a65.728 65.728 0 0 0-48.96 0l-230.016 92.064a17.92 17.92 0 0 1-6.688 1.312l-1.536-0.064c-24.096-2.24-43.104-21.856-43.104-45.504v-394.336c0-25.12 21.44-45.696 47.68-45.696h516.256c26.208 0 47.68 20.576 47.68 45.696V472.032c0 23.648-19.008 43.264-43.104 45.504a22.656 22.656 0 0 1-1.504 0.064z m-198.976-312.992a15.424 15.424 0 0 0 0-30.848h-46.272v-32.384c0-7.648-6.912-13.856-15.424-13.856s-15.424 6.208-15.424 13.856V173.76h-46.272a15.424 15.424 0 0 0 0 30.848h46.272v30.816h-46.272a15.424 15.424 0 0 0 0 30.848h31.648l-29.568 55.232a15.232 15.232 0 0 0 4.96 20 13.12 13.12 0 0 0 18.56-5.344l33.984-63.456a15.392 15.392 0 0 0 1.792-6.432h0.16a15.2 15.2 0 0 0 1.824 6.432l34.528 63.456a13.344 13.344 0 0 0 18.848 5.344 15.168 15.168 0 0 0 5.056-20l-30.048-55.232h31.648a15.424 15.424 0 1 0 0-30.848h-46.272v-30.816h46.272z m112.768 386.464h-33.568l-84.48 137.312a16 16 0 0 1-21.952 5.248l-282.912-174.08a16 16 0 0 1-5.248-21.984l45.888-74.592 27.232 16.736-37.504 60.992 44.416 27.328v-105.312h31.968v96.384h300.224v-96.384h31.968v112.352a16.096 16.096 0 0 1-16.032 16z m-310.752 0l173.856 106.976 65.824-106.976h-239.68z m236.672-81.824h-184.032a16 16 0 0 1 0-31.936h184.032a16 16 0 0 1 0 31.936z m0 0"  horiz-adv-x="1024" />

    
    <glyph glyph-name="web-icon-6" unicode="&#59128;" d="M241.632 301.248c0-20.48 14.624-38.048 35.136-40.992h17.568c14.624-38.08 55.616-84.896 58.56-87.84l2.944-2.944c20.512-17.568 23.424-40.992 23.424-46.848v-20.48a26.24 26.24 0 0 1 26.336-26.336h81.984a26.24 26.24 0 0 1 26.336 26.336v5.856h40.992v-5.856a26.24 26.24 0 0 1 26.336-26.336h81.984c11.712 0 23.424 11.712 26.336 20.48v8.8c0 14.624 2.944 43.904 26.336 67.328a208.32 208.32 0 0 1 43.904 64.416c8.8 14.624 14.656 29.28 17.568 43.904 5.856 20.48 5.856 43.904 5.856 46.848 0 11.712 0 20.48-2.944 32.192 0 8.768-8.768 11.712-14.624 11.712-8.768 0-11.712-8.768-11.712-14.624 2.944-8.8 2.944-20.48 2.944-29.28 0-2.944 0-23.424-5.856-40.992a204.192 204.192 0 0 0-14.624-38.048c-11.712-23.424-23.424-43.904-38.08-58.56-29.28-29.28-35.136-67.328-35.136-81.984v-5.856h-84.896v20.48c0 2.944-2.944 5.856-5.856 8.768-2.912 2.944-8.768 2.944-11.712 2.944a215.04 215.04 0 0 0-61.472 0c-2.944 0-5.856 0-11.712 2.944 0-2.944-2.944-5.856-2.944-8.8v-20.48h-81.984v20.48c0 8.8-2.944 40.992-32.192 67.328l-2.912 2.944c-14.656 17.568-49.76 61.472-58.56 87.84 0 5.856-5.856 8.8-11.712 8.8h-17.536a12.608 12.608 0 0 0-11.712 11.712v61.472c0 5.856 5.856 11.712 11.712 11.712h17.568c5.856 0 8.768 2.944 11.712 8.8 11.712 35.136 35.136 67.328 64.416 90.752 2.944 0 5.856 5.856 5.856 8.768 8.768 23.424 2.944 46.848-11.712 70.272v2.944h2.912c38.08-5.856 58.56-23.424 67.328-38.08 2.944-5.856 8.768-8.768 14.624-5.856 14.624 2.912 32.192 5.856 46.848 8.768 8.8 0 11.712 8.768 11.712 14.624 0 8.8-8.768 11.712-14.624 11.712l-43.904-8.768c-14.624 17.568-40.992 35.136-81.984 38.08-8.768 2.912-20.48-2.944-26.336-11.712a26.592 26.592 0 0 1 0-29.28c8.768-17.568 14.624-35.136 8.768-49.76-29.28-26.336-52.704-55.616-64.416-90.752h-8.768c-20.48 0-38.048-17.568-38.048-38.048v-61.504h-0.032z m0 0M663.264 620.384a117.44 117.44 0 0 1-117.12-117.12c0-64.416 52.704-117.12 117.12-117.12s117.12 52.704 117.12 117.12a117.44 117.44 0 0 1-117.12 117.12z m2.912-207.872a91.2 91.2 0 0 0-90.752 90.752c0 49.76 38.08 90.752 87.84 90.752 49.76 0 90.752-43.904 90.752-90.752s-38.048-90.752-87.84-90.752zM531.488 778.496c-43.904 0-84.928-35.136-84.928-81.984 0-46.848 35.136-81.984 81.984-81.984a81.856 81.856 0 0 1 81.984 81.984c0.032 46.848-35.104 81.984-79.04 81.984z m0-137.6a55.584 55.584 0 0 0-55.616 55.616c0 32.224 20.48 55.648 52.704 55.648s55.648-26.368 55.648-55.648c-0.032-29.28-20.512-55.616-52.736-55.616zM576.064 288.48a11.84 11.84 0 1 0 0-23.744h-35.616v-24.928c0-5.888-5.312-10.688-11.872-10.688s-11.872 4.8-11.872 10.688v24.928h-35.648a11.84 11.84 0 1 0 0 23.744h35.616v23.744h-35.616a11.84 11.84 0 1 0 0 23.744h24.384l-22.784 42.528a11.744 11.744 0 0 0 3.84 15.424 10.08 10.08 0 0 0 14.304-4.128l26.176-48.864c0.832-1.568 1.28-3.264 1.376-4.96h0.128a11.808 11.808 0 0 0 1.408 4.96l26.592 48.864a10.304 10.304 0 0 0 14.528 4.128 11.648 11.648 0 0 0 3.872-15.424l-23.136-42.528h24.384a11.84 11.84 0 1 0 0-23.744h-35.616v-23.744h35.552zM687.008 491.36a5.952 5.952 0 1 0 0-11.872h-17.824v-12.48c0-2.944-2.656-5.344-5.952-5.344s-5.952 2.4-5.952 5.344v12.48h-17.824a5.92 5.92 0 1 0 0 11.872h17.824v11.872h-17.824a5.952 5.952 0 1 0 0 11.872h12.192l-11.392 21.248a5.92 5.92 0 0 0 1.92 7.712 5.024 5.024 0 0 0 7.136-2.048l13.088-24.416c0.416-0.768 0.64-1.632 0.672-2.464h0.064a5.6 5.6 0 0 0 0.704 2.464l13.28 24.416a5.12 5.12 0 0 0 7.264 2.048 5.856 5.856 0 0 0 1.952-7.712l-11.552-21.248h12.192a5.92 5.92 0 1 0 0-11.872h-17.824v-11.872h17.856zM544.992 689.376a3.52 3.52 0 1 0 0-7.104h-10.688v-7.488c0-1.76-1.6-3.2-3.552-3.2-1.984 0-3.552 1.44-3.552 3.2V682.24h-10.72a3.52 3.52 0 1 0 0 7.104h10.688v7.136h-10.688a3.52 3.52 0 1 0 0 7.104h7.328l-6.848 12.768a3.552 3.552 0 0 0 1.152 4.64 3.008 3.008 0 0 0 4.288-1.248l7.84-14.656a3.648 3.648 0 0 0 0.416-1.472h0.032a3.392 3.392 0 0 0 0.416 1.472l7.968 14.656a3.072 3.072 0 0 0 4.352 1.248 3.488 3.488 0 0 0 1.152-4.64l-6.944-12.768h7.328a3.52 3.52 0 1 0 0-7.104h-10.688v-7.136h10.72z"  horiz-adv-x="1024" />

    
    <glyph glyph-name="meitiguanli" unicode="&#58891;" d="M1041.795459-128h-134.434594c-23.385946 0-33.59827 21.531676-33.59827 45.014486s10.212324 45.014486 33.59827 45.014487h112.017297c32.339027 0 67.224216 32.851027 67.224216 67.514811V738.470054c0 35.037405-30.664649 67.514811-67.224216 67.514811H134.420757c-34.802162 0-44.806919-33.432216-44.806919-67.514811v-708.92627c0-31.204324 33.570595-67.514811 67.210378-67.514811h492.889946c23.385946 0 33.612108-21.531676 33.612108-45.014487S673.100108-128 649.714162-128H134.420757C60.914162-128 0-68.123676 0 7.029622V759.61427C0 834.864432 59.793297 895.986162 133.341405 895.986162L1041.795459 896l1.065514-0.013838C1116.367568 895.986162 1176.216216 836.137514 1176.216216 760.970378v-753.940756C1176.216216-68.137514 1115.32973-128 1041.795459-128zM436.874378 232.088216V535.911784c0 45.913946 29.765189 63.792432 70.102487 40.807784l265.299027-150.984649c40.420324-22.970811 40.420324-60.554378 0-83.497514L506.976865 191.252757c-40.337297-22.970811-70.102486-5.078486-70.102487 40.835459z"  horiz-adv-x="1176" />

    
    <glyph glyph-name="meitidengji" unicode="&#58910;" d="M833.6 814.4h-56.8c-25.6 0-26.4-56.8 1.6-56.8h97.6c8 0 16-6.4 16-16V0c0-8-6.4-16-16-16H160.8c-8 0-16 6.4-16 16V741.6c0 8 6.4 16 16 16h115.2c26.4 0 24 56.8-1.6 56.8h-72.8c-80 0-115.2-3.2-115.2-69.6v-743.2c0-71.2 42.4-74.4 120-74.4H824c76.8 0 120-4.8 120 74.4V744.8c3.2 66.4-36.8 69.6-110.4 69.6zM274.4 636c0-16 12.8-29.6 29.6-29.6h440.8c32.8 24 14.4 58.4-12.8 58.4H304c-16 0.8-29.6-13.6-29.6-28.8z m458.4-129.6h-440c-32.8-24-14.4-58.4 12.8-58.4H736c16 0 29.6 12.8 29.6 29.6-4.8 17.6-17.6 28.8-32.8 28.8zM419.2 779.2h200c24 0 39.2 14.4 39.2 31.2s-16 31.2-39.2 31.2h-200c-24 0-40.8-14.4-40.8-31.2 1.6-16.8 16.8-31.2 40.8-31.2z m325.6-742.4c-1.6 3.2-8 4-18.4 3.2-19.2-2.4-33.6 4-42.4 19.2-6.4 11.2-8 23.2-4.8 34.4s12.8 28 28.8 49.6l9.6 13.6c29.6 40 35.2 75.2 18.4 104.8-17.6 30.4-68 28-104.8 12C601.6 334.4 539.2 376 467.2 376c-100.8 0-182.4-81.6-182.4-181.6s81.6-181.6 182.4-181.6c100.8 0 182.4 81.6 182.4 181.6 0 22.4-4 44-11.2 63.2 12 4 27.2 7.2 40.8 8 18.4 0.8 35.2-3.2 41.6-14.4 14.4-25.6 7.2-55.2-20.8-89.6l-5.6-7.2c-33.6-40-41.6-75.2-24-105.6 7.2-12 18.4-20.8 33.6-26.4 15.2-5.6 28.8-4.8 39.2 1.6 3.2 4 4.8 8 1.6 12.8z m-362.4 120c-20.8 0-37.6 16.8-37.6 37.6s16.8 37.6 37.6 37.6 37.6-16.8 37.6-37.6c0.8-20.8-16-37.6-37.6-37.6z m84-84c-20.8 0-37.6 16.8-37.6 37.6s16.8 37.6 37.6 37.6 37.6-16.8 37.6-37.6c0-20-16.8-37.6-37.6-37.6z m-15.2 121.6c0 8 7.2 15.2 15.2 15.2 8 0 15.2-6.4 15.2-15.2 0-8-7.2-15.2-15.2-15.2-8 0-15.2 6.4-15.2 15.2z m15.2 45.6c-20.8 0-37.6 16.8-37.6 37.6s16.8 37.6 37.6 37.6 37.6-16.8 37.6-37.6-16.8-37.6-37.6-37.6z m83.2-83.2c-20.8 0-37.6 16.8-37.6 37.6s16.8 37.6 37.6 37.6 37.6-16.8 37.6-37.6c0.8-20.8-16-37.6-37.6-37.6z"  horiz-adv-x="1024" />

    
    <glyph glyph-name="web-icon-7" unicode="&#59148;" d="M742.592 400.32c-48.32-48.32-123.2-57.28-180.512-26.56l-253.792-251.2c-17.6-17.6-45.44-17.6-61.76 0-17.6 17.6-17.6 45.44 0 61.76l252.512 252.832c-30.72 58.88-23.36 132.16 26.56 180.832 29.44 29.44 67.52 44.16 105.6 44.16-40.96-42.56-39.68-110.08 1.6-152.64a108.672 108.672 0 0 1 152.64-1.6c-0.288-40.032-13.408-78.112-42.848-107.584z m70.4 191.072c-10.24-11.84-29.44-27.84-54.4-51.52-27.84-27.84-65.92-27.84-92.48 0-27.84 27.84-27.84 66.24 0 92.48 23.36 24.96 51.2 55.68 49.92 55.68a194.944 194.944 0 0 1-221.472-39.36c-54.4-54.4-70.4-133.76-47.04-202.912l-231.712-230.4a88.288 88.288 0 0 1 0-123.52c33.6-33.92 89.6-33.92 124.8 0l231.712 232.032c68.8-23.36 148.16-7.36 202.592 47.04 58.56 58.88 70.4 147.2 38.08 220.48zM759.328 77.632h-5.472c-0.672 36.16-19.2 58.784-40.448 77.504-6.176 5.824-4.128 12.928 0 16.16 21.248 19.36 39.776 41.344 40.448 78.144h5.472c4.8 0 8.928 3.872 8.928 8.384 0 4.512-4.128 8.384-8.928 8.384h-134.4c-5.472 0.64-9.6-3.232-9.6-7.744s4.128-8.384 8.928-8.384h5.472c0.672-36.8 18.528-58.784 40.448-78.144a10.88 10.88 0 0 0 0-16.16c-21.248-18.72-39.776-41.344-40.448-77.504h-4.8c-4.8 0-8.928-3.872-8.928-8.384 0-4.512 4.128-8.384 8.928-8.384h135.072c4.8 0 8.928 3.872 8.928 8.384 0 3.84-4.096 7.744-9.6 7.744z m-14.368 171.776c0-11.616-2.752-21.952-6.176-31.008-15.776-4.512-78.176-4.512-93.952 0a73.888 73.888 0 0 0-6.176 31.008h106.304z m-53.504-158.24c-8.928 0-29.472-13.568-43.872-13.568h-8.928c0.672 30.368 15.072 49.728 33.6 66.528 4.8 4.512 12.352 14.208 19.872 14.208 7.552 0 15.072-10.336 19.872-14.848 18.528-16.8 32.928-36.16 33.6-66.528h-10.24c-14.432 0.672-34.304 14.208-43.904 14.208z m0 0"  horiz-adv-x="1024" />

    
    <glyph glyph-name="web-icon-8" unicode="&#59149;" d="M826.88 159.168a22.976 22.976 0 1 0 0-46.016h-69.056v-48.32c0-11.424-10.304-20.704-23.04-20.704-12.736 0-23.008 9.28-23.008 20.704v48.32h-69.056a22.976 22.976 0 1 0 0 46.016h69.056v46.016h-69.056a22.976 22.976 0 1 0 0 46.016h47.232l-44.128 82.432c-5.632 10.464-2.304 23.84 7.424 29.856 9.696 6.048 22.112 2.464 27.712-8l50.72-94.688a23.104 23.104 0 0 0 2.656-9.6h0.224a22.56 22.56 0 0 0 2.72 9.6l51.52 94.688a19.968 19.968 0 0 0 28.16 8 22.624 22.624 0 0 0 7.52-29.856l-44.832-82.432h47.264a22.976 22.976 0 1 0 0-46.016h-69.056v-46.016h69.024zM201.344 292.64a25.504 25.504 0 0 1-25.472-25.472v-201.024c0-14.016 11.456-25.472 25.472-25.472a25.536 25.536 0 0 1 25.472 25.472v201.024a25.568 25.568 0 0 1-25.472 25.472zM328.96 417.6a25.536 25.536 0 0 1-25.472-25.472v-326.144c0-14.016 11.456-25.472 25.472-25.472a25.536 25.536 0 0 1 25.472 25.472V392.128a25.504 25.504 0 0 1-25.472 25.472zM448.576 292.64a25.536 25.536 0 0 1-25.472-25.472v-201.024c0-14.016 11.456-25.472 25.472-25.472a25.504 25.504 0 0 1 25.472 25.472v201.024a25.568 25.568 0 0 1-25.472 25.472zM843.456 655.072l-123.168 26.112a20.896 20.896 0 0 1-24.832-16.224 20.896 20.896 0 0 1 16.224-24.832l65.504-13.888-185.472-146.336-155.744 130.368a25.6 25.6 0 0 1-34.112 2.304l-236.032-186.24a25.568 25.568 0 0 1-4.256-35.776 25.568 25.568 0 0 1 35.776-4.256l219.712 173.248 153.792-128.832a26.016 26.016 0 0 1 17.632-5.92 25.344 25.344 0 0 1 21.76 4.768l196.928 155.36-14.656-69.248a20.896 20.896 0 0 1 16.224-24.832 20.896 20.896 0 0 1 24.832 16.224l26.112 123.168a21.056 21.056 0 0 1-16.224 24.832z m0 0"  horiz-adv-x="1024" />

    
    <glyph glyph-name="web-icon-9" unicode="&#59150;" d="M347.296 363.552c-9.408 0-19.68 7.904-19.68 15.552v4.736c0 5.952 2.688 14.816 19.68 14.816h91.264c9.408 0 18.784-7.168 18.784-14.816v-4.736c0-7.648-9.408-15.552-18.784-15.552h-91.264z m0 0M347.296 568.992c-16.992 0-19.552 9.344-19.552 15.2 0 12.768 10.144 20.064 19.552 20.064h257.408c9.408 0 19.84-7.648 19.84-15.328v-4.736c0-7.648-10.304-15.072-19.84-15.072h-257.408v-0.128z m0 0M347.296 465.664c-9.408 0-19.68 8.256-19.68 15.936v4.736c0 7.648 10.144 15.68 19.68 15.68h195.232c9.408 0 19.232-8.032 19.232-15.68v-4c-5.952-8.992-10.432-16.768-25.216-16.768h-189.248v0.096z m0 0M793.216 498.72c-9.472 0-19.456 4.128-19.456 19.072V656.544a42.24 42.24 0 0 1-42.656 42.56H300.48c-23.84 0-42.176-18.72-42.176-42.56v-539.168c0-23.84 18.24-43.168 42.176-43.168h280.832c9.472 0 19.072-9.984 19.072-19.456s-9.472-19.456-19.072-19.456H300.48c-47.648 0-81.088 39.136-81.088 82.048V656.544c0 42.912 38.048 81.44 81.088 81.44h430.72a81.152 81.152 0 0 0 81.568-81.44v-138.72c-0.096-12.16-5.216-19.104-19.552-19.104zM660.64 584.8a21.504 21.504 0 1 1 43.008 0 21.504 21.504 0 0 1-43.008 0z m0 0M690.432 290.464l-61.216 12.992a10.24 10.24 0 0 1-7.84-1.472 10.4 10.4 0 0 1 3.552-18.944l32.544-6.912-92.192-72.736-77.408 64.8a12.736 12.736 0 0 1-16.96 1.152l-117.312-92.576a12.704 12.704 0 0 1-2.112-17.792c4.352-5.504 12.352-6.4 17.792-2.112l109.216 86.112 76.448-64.032a12.992 12.992 0 0 1 8.768-2.944 12.512 12.512 0 0 1 10.816 2.368l97.888 77.216-7.296-34.432a10.24 10.24 0 0 1 1.472-7.84 10.56 10.56 0 0 1 6.592-4.512 10.368 10.368 0 0 1 12.32 8.064l12.992 61.216a10.464 10.464 0 0 1-8.064 12.384z m0 0"  horiz-adv-x="1024" />

    
    <glyph glyph-name="web-icon-10" unicode="&#59151;" d="M181.504 343.456h263.968a22.048 22.048 0 0 1 0 44.032H181.504a22.048 22.048 0 0 1 0-44.032z m43.968 88h220.032a22.048 22.048 0 0 1 0 44.032H225.472a22.048 22.048 0 0 1 0-44.032z m44.032 87.968h175.968a22.048 22.048 0 0 1 0 44.032H269.504a22.048 22.048 0 0 1 0-44.032z m0 0M860.576 454.304l-85.248 163.392a21.888 21.888 0 0 1-14.304 10.464 20.48 20.48 0 0 1-7.424 1.28h-152.768v22.016a22.048 22.048 0 0 1-22.016 22.016h-221.312a22.048 22.048 0 0 1 0-44.032h197.984v-197.984c0-12.096 9.824-22.016 22.016-22.016h242.048v-94.88c-3.488-45.408-40.288-81.12-86.624-81.12v-0.096l-1.376 0.096h-11.84a87.84 87.84 0 0 1-152.32 0h-155.712a87.84 87.84 0 0 1-152.32 0H181.504a22.048 22.048 0 0 1 0-44.032h65.952c0-48.64 39.36-88 88-88s88 39.36 88 88h132.032c0-48.64 39.36-88 88-88s88 39.36 88 88c0.448 0 0.928 0 1.376 0.096v-0.096c72.928 0 130.656 59.072 130.656 132.032v115.52c-0.032 5.504 0.064 11.904-2.944 17.344z m-259.744-0.832V585.504h141.664l68.896-132.032h-210.56z m-265.344-308.032a44.032 44.032 0 1 0 0 88.064 44.032 44.032 0 0 0 0-88.064z m308 0a44.032 44.032 0 1 0 0 88.064 44.032 44.032 0 0 0 0-88.064z m0 0"  horiz-adv-x="1024" />

    
    <glyph glyph-name="web-icon-11" unicode="&#59152;" d="M686.752 355.488c-0.192 0-0.352-0.096-0.544-0.096a21.344 21.344 0 1 0-1.312 42.624 97.28 97.28 0 0 1 73.28 94.08 97.28 97.28 0 0 1-62.144 90.624 198.72 198.72 0 0 1-25.536 42.56 133.504 133.504 0 0 0 118.56-94.688 133.824 133.824 0 0 0-54.848-150.272 199.552 199.552 0 0 0 124.768-184 18.272 18.272 0 0 0-36.544 0c-0.128 80.384-58.88 146.528-135.68 159.168zM327.168 355.488c0.192 0 0.352-0.096 0.544-0.096a21.344 21.344 0 1 1 1.312 42.624 97.28 97.28 0 0 0-73.28 94.08A97.28 97.28 0 0 0 317.888 582.72a198.72 198.72 0 0 0 25.536 42.56 133.504 133.504 0 0 1-118.56-94.688 133.824 133.824 0 0 1 54.848-150.272 199.552 199.552 0 0 1-124.768-184 18.272 18.272 0 0 1 36.544 0c0.096 80.384 58.88 146.528 135.68 159.168zM488.672 239.68c-14.272-29.792-32.736-72-32.736-90.72 0-26.464 48.96-44.896 48.96-44.896s48.928 18.432 48.928 44.896c0 18.72-18.464 60.96-32.736 90.72-10.208-5.12-22.208-5.12-32.416 0zM504.832 291.52a19.456 19.456 0 1 1 0.064 0h-0.064zM655.232 324.096a22.752 22.752 0 1 1-27.648-36.224c50.304-38.144 79.808-101.856 79.584-164.992 0-12.544 10.176-26.88 22.752-26.88h0.032c12.576 0 22.752 14.368 22.752 26.912 0.256 77.344-35.84 154.496-97.472 201.184zM672.32 496.8a167.456 167.456 0 0 1-167.456 167.456 167.264 167.264 0 0 1-91.872-307.168 249.504 249.504 0 0 1-155.968-229.984 22.848 22.848 0 0 1 45.696 0 202.528 202.528 0 0 0 202.176 202.272 167.392 167.392 0 0 1 167.424 167.424z m-289.28-0.032a121.888 121.888 0 1 0 243.776-0.064 121.888 121.888 0 0 0-243.776 0.064z"  horiz-adv-x="1024" />

    
    <glyph glyph-name="web-icon-12" unicode="&#59153;" d="M862.624 574.272v-17.568c0-3.168 0-10.08-1.728-15.264a164.544 164.544 0 0 0-21.6-57.568 148.16 148.16 0 0 0-26.496-32.544c-4.896-4.32-9.504-8.64-14.688-12.672a154.112 154.112 0 0 0-38.016-19.296 158.944 158.944 0 0 0-25.92-8.064 121.92 121.92 0 0 0-25.92-3.168h-24.768a18.464 18.464 0 0 1-13.824-5.76l-71.968-72.544-263.712-265.152-7.776-7.488a98.272 98.272 0 0 0-21.888-14.976 87.68 87.68 0 0 0-28.8-9.216H241.664a94.976 94.976 0 0 0-28.8 10.08 97.248 97.248 0 0 0-28.8 24.768 100.576 100.576 0 0 0-17.28 33.12 86.4 86.4 0 0 0-3.744 30.528 92.704 92.704 0 0 0 12.672 42.912c4.32 7.872 9.632 15.136 15.84 21.6l337.408 338.56h1.728a18.72 18.72 0 0 1 4.896 15.84c0 6.912 0 13.536-1.728 20.448a106.336 106.336 0 0 0 0 14.976 205.44 205.44 0 0 0 3.168 21.6c3.552 14.816 9.152 29.088 16.704 42.336 6.976 12.672 15.584 24.384 25.632 34.848 4.8 5.088 10.016 9.824 15.552 14.112 6.624 5.184 13.824 9.504 20.736 14.112 8.448 5.344 17.536 9.6 27.072 12.672 7.936 2.688 16 4.896 24.192 6.624a194.56 194.56 0 0 0 25.056 4.032c9.632 0.384 19.296-0.32 28.8-2.016a25.12 25.12 0 0 0 14.112-6.336 20.48 20.48 0 0 0 4.608-22.752 46.4 46.4 0 0 0-11.232-16.128l-27.36-28.8-28.8-28.8a71.904 71.904 0 0 1-11.52-14.112c-4.8-7.616-6.368-16.832-4.32-25.632 2.048-8.128 6.336-15.488 12.384-21.312 12.096-12.384 24.48-24.192 36.832-36.576 4-3.968 8.672-7.2 13.824-9.504a31.616 31.616 0 0 1 18.144-2.592c8.48 1.888 16.128 6.432 21.888 12.96l35.424 35.968 28.8 28.8a21.376 21.376 0 0 0 19.296 6.048 19.296 19.296 0 0 0 16.704-15.552c0.224-4.416 0.224-8.832 0-13.248v-2.304M256.64 174.08a49.728 49.728 0 0 1-36.864-84.48 49.856 49.856 0 0 1 85.536 34.4 50.24 50.24 0 0 1-49.792 50.4M250.88 736.064l8.352-1.728c4.704-1.28 9.312-2.816 13.824-4.608 10.112-4.48 19.2-10.944 26.752-19.008l14.112-13.536 13.824-13.248 35.136-36.288 28.8-28.8 18.72-19.008 17.568-18.144 19.296-18.432 23.04-23.328 7.776-8.352-26.496-25.92-8.928 9.792-34.848 34.848L271.04 687.392a29.024 29.024 0 0 1-11.232 8.064 10.624 10.624 0 0 1-12.096-8.352c-0.576-4.832 1.376-9.6 5.184-12.672l19.296-19.296 149.984-149.408 15.264-14.688-31.68-31.68-2.88 3.744-3.168 4.032-131.264 131.296-44.064 44.352a36.384 36.384 0 0 1-7.776 6.912 10.624 10.624 0 0 1-15.52-8.672 12.768 12.768 0 0 1 2.88-8.352c1.12-1.408 2.368-2.752 3.712-4l177.344-178.496c2.304-2.304 4.896-4.32 7.488-6.336l-16.992-16.416-9.792-8.064s-2.88-1.44-2.88 0l-14.976 14.688-161.76 161.504a90.752 90.752 0 0 0-24.768 45.216v25.344c1.216 6.72 3.136 13.28 5.76 19.584 3.936 7.936 9.088 15.232 15.264 21.6a83.616 83.616 0 0 0 45.184 28.768h23.616M586.56 270.24l39.136 39.168h1.728l15.84-15.552 61.888-61.888 19.008-19.296c3.68-4.128 8.32-7.296 13.536-9.216 2.816-0.864 5.696-1.44 8.64-1.728 8.128-0.992 15.968-3.648 23.04-7.776 6.656-3.872 12.576-8.832 17.568-14.688 3.616-4.32 6.976-8.832 10.08-13.536 7.776-11.52 15.84-23.04 23.328-34.56 7.488-11.52 16.704-26.496 24.768-39.424 3.168-5.184 6.624-10.368 9.504-15.84a22.24 22.24 0 0 0 0-24.768c-3.84-5.12-9.024-9.088-14.976-11.52a17.792 17.792 0 0 0-10.656 0 82.752 82.752 0 0 0-18.72 8.64l-13.824 7.776-20.16 12.096a1013.952 1013.952 0 0 0-22.464 14.976 405.76 405.76 0 0 0-22.176 16.704c-7.2 5.76-12.384 9.792-17.856 15.264a68.256 68.256 0 0 0-18.72 33.696c0 4.032-1.728 8.064-2.88 12.096a24.096 24.096 0 0 1-6.624 10.368l-98.176 98.464-1.728 1.44"  horiz-adv-x="1024" />

    
    <glyph glyph-name="web-icon-13" unicode="&#59156;" d="M408.544 496.288a2493.376 2493.376 0 0 0-16.064 14.944 104.32 104.32 0 0 0-34.848-6.4 105.856 105.856 0 0 0-105.6 105.6c0 58.112 47.456 105.6 105.6 105.6 58.112 0 105.6-47.456 105.6-105.6 0-5.568-0.8-10.912-1.664-16.256l16.384-16.224c2.816 10.432 4.768 21.184 4.768 32.48 0 69.216-55.904 125.12-125.12 125.12s-125.12-55.904-125.12-125.12a124.96 124.96 0 0 1 176.064-114.144zM777.92 233.888c-31.072 55.008-48.352 114.464-53.696 177.024-2.208 29.28-6.656 58.112-6.656 88.288 0 29.728-29.28 53.696-52.8 54.144-28.832 0.448-52.8-19.52-58.112-50.144-3.104-13.76-5.76-27.52-8.448-45.248-8.416 8-13.76 13.76-19.968 19.52-53.696 52.8-90.528 90.08-144.192 142.88-37.696 37.248-70.08 32.352-90.048 11.968-19.072-18.624-23.968-48.352 6.656-80.32 15.968-17.312 32.384-32.832 53.696-52.352 9.76-9.312 10.656-16.416 0-24.832-16.864-13.312-27.968-29.728-25.728-52.352 0.896-10.208-8.864-14.208-15.072-19.52-18.208-15.52-29.28-34.176-26.624-58.56 1.344-12.864-5.76-19.52-13.76-26.176-17.312-14.624-28.832-37.28-23.072-60.352 5.76-22.624 25.728-39.04 42.144-54.112 31.936-30.176 62.112-62.56 97.6-89.184 36.832-27.072 78.528-46.144 120.672-64.32 32.832-13.76 55.008-18.176 80.736 10.208 43.04 45.696 87.84 90.08 132.224 134.432 12.896 12.384 12.448 24.8 4.448 39.008z m-44.8-25.312c-43.04-39.488-83.424-82.08-123.328-124.672-9.312-9.76-19.968-9.312-27.072-6.208-41.696 17.76-86.08 35.488-122.016 63.008-27.968 21.728-53.696 46.144-78.976 70.976-17.312 16.864-59.456 43.936-43.04 72.768 14.208 24.832 34.592 7.104 48.352-4.896 8.864-8 14.208-19.52 28.832-4.448 13.312 14.208 2.656 19.072-4.896 26.624-8.864 8.864-16.864 18.176-26.624 25.728-15.52 11.968-17.76 23.072-2.656 37.728 24.832 23.968 46.144-8.864 63.456-26.176 8-7.552 14.656-3.552 21.728 3.104 11.968 11.552 5.76 17.312-2.656 24.832-14.208 13.312-28.384 26.176-41.248 39.936-14.208 14.624-8 31.488-2.656 37.28 5.76 6.208 16.416 19.072 27.968 8.864 16.416-14.656 30.624-29.728 41.248-39.04 8-6.656 13.76-17.76 27.52-4.448 12.864 12.864 4.448 19.072-4 27.072-47.04 46.144-94.048 93.632-141.984 139.328-11.52 11.104-16.416 21.728-4 34.176 11.104 11.552 23.072 6.656 33.28-3.552 35.936-34.592 71.424-70.976 107.808-106.464l111.808-110.464c5.76-5.76 11.552-14.656 21.28-4.448 6.208 7.104 11.968 11.552 5.76 23.968-12.864 24.416-11.968 51.456-9.312 78.528 1.312 16.416 5.312 27.52 23.968 28.832 21.28 1.344 19.52-15.52 20.416-27.52 6.656-83.872 10.208-167.712 51.456-244.896 4.032-7.104 16-20.416-0.416-35.52z"  horiz-adv-x="1024" />

    


  </font>
</defs>
</svg>
